<?xml version="1.0" standalone="no"?>
<!DOCTYPE svg PUBLIC "-//W3C//DTD SVG 20010904//EN"
 "http://www.w3.org/TR/2001/REC-SVG-20010904/DTD/svg10.dtd">
<svg version="1.0" xmlns="http://www.w3.org/2000/svg"
 width="334.000000pt" height="334.000000pt" viewBox="0 0 334.000000 334.000000"
 preserveAspectRatio="xMidYMid meet">
<metadata>
Created by potrace 1.14, written by Peter Selinger 2001-2017
</metadata>
<g transform="translate(0.000000,334.000000) scale(0.100000,-0.100000)"
fill="#000000" stroke="none">
<path d="M1510 3334 c-8 -1 -49 -8 -90 -14 -155 -25 -272 -58 -405 -115 -388
-166 -702 -476 -871 -860 -43 -96 -84 -217 -98 -290 -1 -5 -5 -23 -9 -40 -26
-117 -32 -191 -31 -365 2 -338 84 -609 269 -895 238 -368 641 -642 1065 -721
47 -9 94 -18 105 -21 11 -3 99 -6 195 -8 163 -3 274 8 405 38 254 59 500 182
694 345 256 216 438 493 530 809 28 92 33 113 46 188 15 86 20 152 20 275 0
178 -9 262 -45 407 -157 646 -671 1125 -1337 1249 -76 14 -391 27 -443 18z"/>
</g>
</svg>
